<?xml version="1.0" encoding="UTF-8"?>
<svg xmlns="http://www.w3.org/2000/svg" viewBox="0 0 720.78 720.5">
  <g>
    <g>
      <g>
        <path className="ai-dark" d="M291.94,242.75c11.83,42.75,25.39,83.76,38.54,125.33h-75.63c12.15-41.51,26.41-82.19,37.09-125.33Z"/>
        <path className="ai-dark" d="M630.57.25H90.43C40.9.25.5,40.68.5,90.25v540c0,49.57,40.4,90,89.93,90l540.14-.28c49.53,0,89.93-40.43,89.93-90V90.25C720.5,40.68,680.1.25,630.57.25ZM436.96,503.91c-18.58,0-37.17-.19-55.75.12-5.37.09-7.76-1.94-9.39-6.84-7.09-21.29-14.57-42.46-21.71-63.73-1.13-3.37-2.7-4.43-6.28-4.41-34.2.15-68.4.15-102.6,0-3.46-.01-4.73,1.12-5.74,4.33-6.61,20.96-13.47,41.84-20.24,62.74-2.45,7.59-2.7,7.79-10.44,7.79h-48.72c-8.12,0-8.91-1.07-6.27-8.65,26.65-76.71,53.32-153.41,79.96-230.13,5.62-16.19,11.07-32.45,16.68-48.65,2.59-7.48,3.66-15.18,3.46-23.02-.11-4.58,1.75-5.99,6.12-5.92,12.02.19,24.05.07,36.08.07s23.74.11,35.6-.07c4.03-.05,6.07,1.34,7.47,5.28,35.71,101.12,71.55,202.2,107.36,303.28,2.46,6.93,1.84,7.8-5.59,7.81ZM544.12,385.09c0,37.49.01,74.98,0,112.47,0,7.34-.34,7.66-7.64,7.66-17.49,0-34.99.01-52.48,0-6.36-.01-7.18-.77-7.18-6.88-.01-75.45-.01-150.9,0-226.35,0-6,.7-6.7,6.75-6.71,17.96-.02,35.92-.02,53.89,0,5.86.01,6.65.83,6.66,6.87.01,37.64,0,75.29,0,112.94ZM510.85,240.09c-22.7-.2-37.33-15.33-37.16-38.44.15-21.4,16.4-37.02,38.24-36.76,22.19.26,36.46,15.33,36.21,38.25-.23,21.94-15.58,37.14-37.29,36.95Z"/>
      </g>
      <path className="ai-light" d="M442.55,496.1c-35.81-101.08-71.65-202.16-107.36-303.28-1.4-3.94-3.44-5.33-7.47-5.28-11.86.18-23.73.07-35.6.07s-24.06.12-36.08-.07c-4.37-.07-6.23,1.34-6.12,5.92.2,7.84-.87,15.54-3.46,23.02-5.61,16.2-11.06,32.46-16.68,48.65-26.64,76.72-53.31,153.42-79.96,230.13-2.64,7.58-1.85,8.65,6.27,8.65h48.72c7.74,0,7.99-.2,10.44-7.79,6.77-20.9,13.63-41.78,20.24-62.74,1.01-3.21,2.28-4.34,5.74-4.33,34.2.15,68.4.15,102.6,0,3.58-.02,5.15,1.04,6.28,4.41,7.14,21.27,14.62,42.44,21.71,63.73,1.63,4.9,4.02,6.93,9.39,6.84,18.58-.31,37.17-.12,55.75-.12,7.43-.01,8.05-.88,5.59-7.81ZM254.85,368.08c12.15-41.51,26.41-82.19,37.09-125.33,11.83,42.75,25.39,83.76,38.54,125.33h-75.63Z"/>
      <path className="ai-light" d="M544.12,272.15c.01,37.64,0,75.29,0,112.94s.01,74.98,0,112.47c0,7.34-.34,7.66-7.64,7.66-17.49,0-34.99.01-52.48,0-6.36-.01-7.18-.77-7.18-6.88-.01-75.45-.01-150.9,0-226.35,0-6,.7-6.7,6.75-6.71,17.96-.02,35.92-.02,53.89,0,5.86.01,6.65.83,6.66,6.87Z"/>
      <path className="ai-light" d="M473.69,201.65c.15-21.4,16.4-37.02,38.24-36.76,22.19.26,36.46,15.33,36.21,38.25-.23,21.94-15.58,37.14-37.29,36.95-22.7-.2-37.33-15.33-37.16-38.44Z"/>
    </g>
  </g>
</svg>