<?xml version="1.0" encoding="UTF-8"?>
<svg xmlns="http://www.w3.org/2000/svg" viewBox="0 0 720.78 720.5">
  <g>
    <g>
      <path className="js-light" d="M630.57.25H90.43C41.67.25,1.76,39.43.53,87.93c-.02.77-.03,1.55-.03,2.32v540c0,.77.01,1.55.03,2.32,1.17,45.81,36.82,83.29,81.85,87.31,2.65.25,5.34.37,8.05.37l110.72-.06,429.42-.22c49.53,0,89.93-40.43,89.93-90V90.25C720.5,40.68,680.1.25,630.57.25ZM365.99,636.65c-16.66,16.79-42.95,26.68-75.29,26.68-53.03,0-82.48-25.84-101.28-61.59,18.09-11.55,36.59-22.71,55.44-33.52,7.68,21.5,33.65,45.68,62.95,30.79,18.58-9.44,16.43-38.05,16.43-69.11v-197.08c-.06-.97-.11-1.94.68-2.06h66.39v165.6c0,60.02,4.29,110.45-25.32,140.29ZM663.01,577.12c-3.77,56.2-49.66,86.04-111.55,86.21-60.68.18-99.51-26.79-123.2-68.43,17.03-11.72,36.32-21.16,54.07-32.15,14.21,22.2,38.8,43.55,75.29,40.37,22.72-1.98,49.11-20.51,34.21-48.59-7.22-13.61-24.68-20.52-40.37-27.37-49.81-21.73-108.25-41.66-102.66-119.75,1.87-26.09,13.88-44.42,29.43-57.48,15.94-13.39,37.28-22.36,65.7-23.27,51.61-1.65,79.92,21.31,99.23,53.38-16.43,12.53-34.54,23.4-52.7,34.21-5.95-18.31-34.72-36.15-58.85-25.32-10.98,4.93-20.84,19.39-15.06,36.95,5.16,15.67,26.2,24.24,43.12,31.49,51.22,21.92,108.46,43.35,103.34,119.75Z"/>
      <g>
        <path className="js-dark" d="M391.31,496.36c0,60.02,4.29,110.45-25.32,140.29-16.66,16.79-42.95,26.68-75.29,26.68-53.03,0-82.48-25.84-101.28-61.59,18.09-11.55,36.59-22.71,55.44-33.52,7.68,21.5,33.65,45.68,62.95,30.79,18.58-9.44,16.43-38.05,16.43-69.11v-197.08c-.06-.97-.11-1.94.68-2.06h66.39v165.6Z"/>
        <path className="js-dark" d="M663.01,577.12c-3.77,56.2-49.66,86.04-111.55,86.21-60.68.18-99.51-26.79-123.2-68.43,17.03-11.72,36.32-21.16,54.07-32.15,14.21,22.2,38.8,43.55,75.29,40.37,22.72-1.98,49.11-20.51,34.21-48.59-7.22-13.61-24.68-20.52-40.37-27.37-49.81-21.73-108.25-41.66-102.66-119.75,1.87-26.09,13.88-44.42,29.43-57.48,15.94-13.39,37.28-22.36,65.7-23.27,51.61-1.65,79.92,21.31,99.23,53.38-16.43,12.53-34.54,23.4-52.7,34.21-5.95-18.31-34.72-36.15-58.85-25.32-10.98,4.93-20.84,19.39-15.06,36.95,5.16,15.67,26.2,24.24,43.12,31.49,51.22,21.92,108.46,43.35,103.34,119.75Z"/>
      </g>
    </g>
  </g>
</svg>