<?xml version="1.0" encoding="UTF-8"?>
<svg xmlns="http://www.w3.org/2000/svg" viewBox="0 0 720.78 720.5">
  <g>
    <g>
      <path class="webflow-dark" d="M630.57.25H90.43C40.9.25.5,40.68.5,90.25v540c0,49.57,40.4,90,89.93,90l540.14-.28c49.53,0,89.93-40.43,89.93-90V90.25C720.5,40.68,680.1.25,630.57.25ZM464.57,505.91h-129.47l57.69-111.69h-2.59c-47.59,61.78-118.6,102.46-219.78,111.69v-110.15s64.73-3.82,102.78-43.83h-102.78v-115.52h115.51v95.01h2.59s47.2-95.01,47.2-95.01h87.36v94.41h2.59l48.97-94.41h127.78l-137.85,269.5Z"/>
      <path class="icon-white" d="M602.42,236.41l-137.85,269.5h-129.47l57.69-111.69h-2.59c-47.59,61.78-118.6,102.46-219.78,111.69v-110.15s64.73-3.82,102.78-43.83h-102.78v-115.52h115.51v95.01h2.59s47.2-95.01,47.2-95.01h87.36v94.41h2.59l48.97-94.41h127.78Z"/>
    </g>
  </g>
</svg>