<svg id="Layer_1" 
    data-name="Layer 1" 
    xmlns="http://www.w3.org/2000/svg" 
    viewBox="0 0 43.75 41.06">
    <defs>
        <clipPath id="clippath">
            <path d="M23.22 2.79h-.38l-7.07.29.93 7.01a5.937 5.937 0 0 1-.24 2.59l-.31.94-.6.79c-.23.3-.48.58-.77.83l-.02.02c-.18.16-.37.32-.58.46l-2.81 1.92v15.01l2.15 1.92c2.66 2.39 6.1 3.7 9.68 3.7h6.45V30.3c4.88-2.43 8.07-7.48 8.07-13 0-8.01-6.51-14.52-14.52-14.52Zm4.3 26.12v7.22h-4.3c-3.05 0-5.98-1.12-8.25-3.15l-1.43-1.28V18.78l1.87-1.28c.29-.2.56-.41.81-.64l.02-.02c.38-.34.73-.72 1.04-1.14l.81-1.08.42-1.28c.26-.8.4-1.64.4-2.5 0-.35-.02-.7-.07-1.04l-.62-4.67 4.71-.19h.29c6.82 0 12.37 5.55 12.37 12.37 0 5.31-3.36 9.85-8.07 11.6Z"/>
        </clipPath>
    </defs>
    <g id="Logo_Thick" data-name="Logo Thick">
        <g id="R_Logo" data-name="R Logo">
            <path id="Base" className="r-fill" d="M38.92 29.14a8.032 8.032 0 0 1 2.06 5.38v1.71a8.024 8.024 0 0 1-5.38 2.05v-3.76c0-1.48-1.2-2.69-2.69-2.69v6.45c-2.07 0-3.95-.78-5.38-2.05V28.9c.79-.29 1.54-.67 2.25-1.11.63-.39 1.22-.84 1.76-1.34h1.36c1.48 0 2.69-1.2 2.69-2.69 0-.77-.33-1.47-.85-1.96a12.19 12.19 0 0 0 .78-5.67 8.061 8.061 0 0 1 5.44 7.63c0 2.07-.78 3.95-2.06 5.38Z"/>
            <path className="r-dot" d="M33.98 24.23c0 .3-.24.54-.54.54h-.7s.08-.37.08-.54c0-.3.33-.54.63-.54s.54.24.54.54Z" style="clip-path:url(#clippath)" id="Cirlce"/>
        </g>
        <g id="P_Logo" data-name="P Logo">
            <path id="Base-2" data-name="Base" className="p-fill" d="M31.29 17.31c0 4.46-3.61 8.07-8.07 8.07v6.45c-2.07 0-3.95-.78-5.38-2.05v-8.73c.45-.3.87-.64 1.27-1 .59-.53 1.13-1.11 1.61-1.75a2.69 2.69 0 1 0 1.88-3.61 12.206 12.206 0 0 0 .5-5.45h.11c4.45 0 8.07 3.61 8.07 8.07Z"/>
            <path id="Circle" className="p-dot" d="M23.22 16.77s-.08 0-.11.01l-.62.15.23.58c.06.16.23.34.5.34.3 0 .54-.24.54-.54s-.24-.54-.54-.54Z"/>
        </g>
        <g id="Y_Logo" data-name="Y Logo">
            <path id="Base-3" data-name="Base" className="y-fill" d="M18.91 10.86c0 3.51-2.25 6.5-5.38 7.61v6.91c-2.07 0-3.95-.78-5.38-2.05v-4.86c-3.13-1.11-5.38-4.09-5.38-7.61s2.25-6.5 5.38-7.61v7.61a2.69 2.69 0 0 0 5.38 0V3.25c3.13 1.11 5.38 4.09 5.38 7.61Z"/>
        </g>
        <path className="r-outline" d="M32.72 13.55h.19c5.63 0 10.22 4.58 10.22 10.22 0 1.9-.57 3.76-1.48 5.3l-.05.08c1 1.6 1.53 3.46 1.53 5.38v2.67l-.72.64a10.17 10.17 0 0 1-6.81 2.6h-2.69c-2.52 0-4.94-.92-6.81-2.6l-.72-.64v-3.21" id="R_Outline" data-name="R Outline"/>
        <path className="p-outline" d="M20.48 7.47c.87-.24 1.79-.37 2.74-.37 5.63 0 10.22 4.58 10.22 10.22 0 4.9-3.46 9-8.07 9.99V33.99h-2.15c-2.52 0-4.94-.92-6.81-2.6l-.72-.64v-3.21" id="P_Outline" data-name="P Outline"/>
        <path id="Y_Outline" data-name="Y Outline" className="y-outline" d="M15.69 27.3v.23h-2.15c-2.52 0-4.94-.92-6.81-2.6l-.72-.64v-4.43c-3.2-1.73-5.39-5.12-5.39-9C.62 5.33 4.82.82 10.31.65v10.21c0 .3.24.54.54.54s.54-.24.54-.54V.65c5.48.18 9.68 4.69 9.68 10.21 0 3.88-2.18 7.27-5.38 9v7.44Z"/>
    </g>
</svg>