<?xml version="1.0" encoding="UTF-8"?>
<svg xmlns="http://www.w3.org/2000/svg" viewBox="0 0 720.56 720" data-name="CSS Logo">
    <g>
      <path className="fill-2" d="M42.86,0l57.75,648.03,259.27,71.97,259.97-72.07L677.7,0H42.86ZM197.59,531.77l-11.14-124.8h79.8l5.65,63.39,88.39,23.88.12.03.08-.02v-.03l88.63-23.91,9.27-103.06h-185.51l-1.59-17.88-3.59-40.29-1.91-21.32h199.68l7.25-81.38H168.59l-1.6-17.87-3.62-40.3-1.9-21.32h398.11l-1.9,21.32-19.52,219.03h-.01l-13.51,151.1-1.21,13.42-162.65,45.08v.02l-.38.1-.1-.03-162.69-45.17Z"/>
      <polygon className="fill-1" points="360.4 494.28 360.28 494.25 360.28 367.25 458.39 367.25 449.12 470.31 360.49 494.23 360.49 494.26 360.4 494.28"/>
      <polygon className="fill-1" points="465.45 287.76 360.28 287.76 360.28 206.38 472.7 206.38 465.45 287.76"/>
      <polygon className="fill-1" points="619.79 52.99 570.37 606.68 360.28 664.92 360.28 576.95 360.38 576.98 360.76 576.87 360.76 576.85 523.41 531.77 524.63 518.35 538.13 367.25 538.14 367.25 557.66 148.22 559.57 126.89 360.28 126.89 360.28 52.99 619.79 52.99"/>
    </g>
</svg>