<?xml version="1.0" encoding="UTF-8"?>
<svg xmlns="http://www.w3.org/2000/svg" viewBox="0 0 720.56 720" data-name="Figma Logo">
  <g>
    <path className="fill-1" d="M279.38,135.51h62.7v125.39h-62.7c-34.63,0-62.7-28.07-62.7-62.7s28.07-62.69,62.7-62.69Z"/>
    <path className="fill-1" d="M279.38,297.3h62.7v125.4h-62.7c-34.63,0-62.7-28.07-62.7-62.7s28.07-62.7,62.7-62.7Z"/>
    <path className="fill-1" d="M279.38,459.1h62.7v62.7c0,34.62-28.07,62.69-62.7,62.69s-62.7-28.07-62.7-62.69,28.07-62.7,62.7-62.7Z"/>
    <path className="fill-1" d="M503.88,360c0,34.63-28.07,62.7-62.7,62.7s-62.66-28.03-62.7-62.62v-.16c.04-34.56,28.06-62.58,62.62-62.62h.14c34.6.04,62.64,28.09,62.64,62.7Z"/>
    <path className="fill-1" d="M503.88,198.2c0,34.61-28.04,62.66-62.63,62.7h-62.77v-125.39h62.7c34.63,0,62.7,28.07,62.7,62.69Z"/>
    <path className="fill-1" d="M630.35,0H90.21C40.68,0,.28,40.43.28,90v540c0,49.57,40.4,90,89.93,90l540.14-.28c49.53,0,89.93-40.43,89.93-90V90c0-49.57-40.4-90-89.93-90ZM540.28,360c0,54.73-44.37,99.1-99.1,99.1-23.79,0-45.62-8.38-62.7-22.35v85.05c0,54.73-44.37,99.1-99.1,99.1s-99.1-44.37-99.1-99.1c0-33.41,16.53-62.95,41.85-80.9-25.32-17.95-41.85-47.5-41.85-80.9s16.53-62.95,41.85-80.9c-25.32-17.95-41.85-47.5-41.85-80.9,0-54.73,44.37-99.1,99.1-99.1h161.8c54.73,0,99.1,44.37,99.1,99.1,0,33.4-16.53,62.95-41.85,80.9,25.32,17.95,41.85,47.5,41.85,80.9Z"/>
  </g>
</svg>