<?xml version="1.0" encoding="UTF-8"?>
<svg id="Layer_1" data-name="Layer 1" xmlns="http://www.w3.org/2000/svg" xmlns:xlink="http://www.w3.org/1999/xlink" viewBox="0 0 36 36">
  <defs>
    <style>
      .cls-1, .cls-2 {
        fill: none;
      }

      .cls-1, .cls-3 {
        stroke-width: 0px;
      }

      .cls-2 {
        stroke: #fff;
        stroke-miterlimit: 10;
        stroke-width: 1.2px;
      }

      .cls-4 {
        clip-path: url(#clippath);
      }

      .cls-3 {
        fill: #fff;
      }
    </style>
    <clipPath id="clippath">
      <path class="cls-1" d="M19.1,3.48c-.1,0-.21,0-.31,0l-5.78.24.76,5.73c.03.2.04.41.04.62,0,.51-.08,1.02-.24,1.49l-.25.77-.49.65c-.19.25-.4.47-.63.68l-.02.02c-.15.13-.31.26-.48.37l-2.3,1.57v12.28l1.76,1.57c2.18,1.95,4.99,3.03,7.92,3.03h5.28v-6.52c3.99-1.99,6.6-6.12,6.6-10.64,0-6.55-5.33-11.88-11.88-11.88ZM22.62,24.85v5.91h-3.52c-2.49,0-4.89-.92-6.75-2.58l-1.17-1.05v-10.57l1.53-1.05c.24-.16.46-.34.66-.52h.02c.31-.29.6-.6.85-.94l.66-.88.34-1.04c.22-.66.32-1.34.32-2.04,0-.29-.02-.58-.06-.85l-.51-3.82,3.85-.16c.08,0,.16,0,.24,0,5.58,0,10.12,4.54,10.12,10.12,0,4.34-2.75,8.06-6.6,9.49Z"/>
    </clipPath>
  </defs>
  <g id="Logo_Thick" data-name="Logo Thick">
    <g id="R_Logo" data-name="R Logo">
      <path id="Base" class="cls-3" d="M31.94,25.04c1.05,1.17,1.68,2.71,1.68,4.4v1.4c-1.17,1.04-2.71,1.68-4.4,1.68v-3.08c0-1.21-.99-2.2-2.2-2.2v5.28c-1.69,0-3.23-.64-4.4-1.68v-5.99c.65-.24,1.26-.55,1.84-.91.51-.32,1-.69,1.44-1.1h1.12c1.21,0,2.2-.98,2.2-2.2,0-.63-.27-1.2-.7-1.6.45-1.14.69-2.38.69-3.68,0-.32-.02-.65-.05-.96,2.59.89,4.45,3.35,4.45,6.24,0,1.69-.64,3.23-1.68,4.4Z"/>
      <g id="Cirlce">
        <g class="cls-4">
          <path class="cls-2" d="M27.9,21.02c0,.24-.2.44-.44.44h-.57s.06-.3.06-.44c0-.24.27-.44.51-.44s.44.2.44.44Z"/>
        </g>
      </g>
    </g>
    <g id="P_Logo" data-name="P Logo">
      <path id="Base-2" data-name="Base" class="cls-3" d="M25.7,15.36c0,3.65-2.96,6.6-6.6,6.6v5.28c-1.69,0-3.23-.64-4.4-1.68v-7.14c.36-.25.71-.52,1.04-.82.48-.43.92-.91,1.31-1.43.32.82,1.12,1.39,2.05,1.39,1.21,0,2.2-.98,2.2-2.2s-.99-2.2-2.2-2.2c-.17,0-.34.02-.5.06.32-.99.5-2.04.5-3.14,0-.45-.03-.89-.09-1.32.03,0,.06,0,.09,0,3.64,0,6.6,2.96,6.6,6.6Z"/>
      <path id="Circle" class="cls-2" d="M19.1,14.92s-.06,0-.09,0l-.51.12.19.47c.05.13.19.28.41.28.24,0,.44-.2.44-.44s-.2-.44-.44-.44Z"/>
    </g>
    <g id="Y_Logo" data-name="Y Logo">
      <path id="Base-3" data-name="Base" class="cls-3" d="M15.58,10.08c0,2.87-1.84,5.32-4.4,6.22v5.66c-1.69,0-3.23-.64-4.4-1.68v-3.97c-2.56-.91-4.4-3.35-4.4-6.22s1.84-5.32,4.4-6.22v6.22c0,1.21.99,2.2,2.2,2.2s2.2-.99,2.2-2.2V3.85c2.56.91,4.4,3.35,4.4,6.22Z"/>
    </g>
    <g id="R_Outline" data-name="R Outline">
      <path class="cls-2" d="M26.87,12.28c.05,0,.1,0,.15,0,4.61,0,8.36,3.75,8.36,8.36,0,1.56-.46,3.08-1.21,4.34l-.04.07c.81,1.31,1.25,2.83,1.25,4.4v2.19l-.59.52c-1.53,1.37-3.51,2.13-5.57,2.13h-2.2c-2.06,0-4.04-.76-5.57-2.13l-.59-.52v-2.63"/>
    </g>
    <g id="P_Outline" data-name="P Outline">
      <path class="cls-2" d="M16.86,7.3c.71-.2,1.46-.3,2.24-.3,4.61,0,8.36,3.75,8.36,8.36,0,4.01-2.83,7.36-6.6,8.17v5.28s0,.19,0,.19h-1.76c-2.06,0-4.04-.76-5.57-2.13l-.59-.53v-2.62"/>
    </g>
    <path id="Y_Outline" data-name="Y Outline" class="cls-2" d="M12.94,23.53v.19h-1.76c-2.06,0-4.04-.76-5.57-2.13l-.59-.52v-3.62c-2.62-1.41-4.4-4.18-4.4-7.36C.61,5.56,4.05,1.86,8.54,1.72h0v8.36c0,.24.2.44.44.44s.44-.2.44-.44V1.72c4.49.14,7.92,3.84,7.92,8.36,0,3.18-1.78,5.95-4.4,7.36v6.09Z"/>
  </g>
</svg>