<svg xmlns="http://www.w3.org/2000/svg" viewBox="0 0 720 720"><path d="m319.97 306.44 27.04 84.67h-88.24l26.52-84.67c6.12-20.4 11.22-44.37 16.32-64.27h1.02c5.1 19.89 10.71 43.35 17.34 64.27ZM720 120v480c0 66-54 120-120 120H120C54 720 0 666 0 600V120C0 54 54 0 120 0h480c66 0 120 54 120 120ZM456.16 535.96 344.46 192.2h-80.07L154.22 535.96H219l29.58-97.42h109.15l31.11 97.42h67.32Zm106.06-248.39h-63.25v248.39h63.25V287.57Zm3.57-69.36c-.51-19.38-13.77-34.17-35.19-34.17s-35.19 14.79-35.19 34.17 13.77 33.66 34.68 33.66c21.93 0 35.7-14.79 35.7-33.66Z" data-name="Illustrator Logo"/></svg>