<svg xmlns="http://www.w3.org/2000/svg" viewBox="0 0 720 720"><path d="M630.07.28H89.93C40.4.28 0 40.68 0 90.21v539.58c0 49.53 40.4 89.93 89.93 89.93l540.14-.27c49.53 0 89.93-40.4 89.93-89.93V90.21C720 40.68 679.6.28 630.07.28ZM342.44 516.09c0 33.4-27.08 60.48-60.48 60.48s-60.49-27.08-60.49-60.48 27.09-60.49 60.49-60.49h60.48v60.49Zm0-95.61h-60.48c-33.4 0-60.48-27.08-60.48-60.49s27.08-60.48 60.48-60.48h60.48v120.97Zm0-156.09h-60.48c-33.4 0-60.48-27.08-60.48-60.48s27.08-60.48 60.48-60.48h60.48v120.96Zm95.6 156.09c-33.08 0-59.96-26.56-60.48-59.52v-1.94c.52-32.95 27.4-59.51 60.48-59.51s60.49 27.08 60.49 60.48-27.08 60.49-60.49 60.49Zm-.01-156.09h-60.47V143.43h60.48c33.41 0 60.49 27.08 60.49 60.48s-27.09 60.48-60.5 60.48Z" data-name="Figma Logo"/></svg>