<svg xmlns="http://www.w3.org/2000/svg" viewBox="0 0 720 720"><path d="M630.07.28H89.93C40.4.28 0 40.68 0 90.21v539.58c0 49.53 40.4 89.93 89.93 89.93l540.14-.28c49.53 0 89.93-40.4 89.93-89.93V90.21C720 40.68 679.6.28 630.07.28ZM204.09 590.33l50.31-35.16c9.71 17.21 18.47 29.42 39.66 29.42s33.03-10.3 33.03-41.2V327.1h65.81v217.14c0 64.06-39.45 97.93-94.24 97.93-49.49 0-79.14-18.93-93.72-51.84h-.86Zm331.22 47.13c-57.42 0-94.54-27.38-112.63-63.18l50.35-29.16c13.26 21.65 30.47 37.54 60.97 37.54 25.6 0 41.95-12.8 41.95-30.48 0-26.57-35.47-36.98-60.51-47.7-44.62-18.99-74.23-42.85-74.23-93.22 0-46.37 35.34-81.7 90.59-81.7 39.29 0 67.59 13.69 87.89 49.45l-48.14 30.93c-10.59-18.99-22.08-26.49-39.75-26.49s-29.62 11.48-29.62 26.49c0 18.56 11.49 26.06 38.01 37.55 55.58 23.81 97.62 42.55 97.62 103.81 0 55.67-43.73 86.15-102.5 86.15Z" data-name="JavaScript Logo"/></svg>