<svg xmlns="http://www.w3.org/2000/svg" viewBox="0 0 720 720"><path d="M600 0H120C54 0 0 54 0 120v480c0 66 54 120 120 120h480c66 0 120-54 120-120V120C720 54 666 0 600 0ZM344.96 366.37c-24.99 24.99-64.27 36.73-108.64 36.73-11.73 0-22.44-.51-30.6-2.04v129.55H143.5V191.43c22.44-4.08 53.55-7.14 95.88-7.14 45.91 0 79.57 9.69 101.5 28.05 20.4 16.83 33.66 43.86 33.66 76 0 32.64-10.2 59.67-29.58 78.03Zm130.55 169.34c-30.09 0-57.12-7.14-75.49-17.34l12.24-45.39c14.28 8.67 41.31 17.85 63.76 17.85 27.54 0 39.78-11.22 39.78-27.54s-10.2-25.5-40.8-36.21c-48.46-16.83-68.85-43.35-68.34-72.43 0-43.86 36.21-78.03 93.84-78.03 27.54 0 51.52 7.14 65.79 14.79l-12.24 44.37c-10.71-6.12-30.6-14.28-52.53-14.28s-34.68 10.71-34.68 26.01 11.73 23.47 43.35 34.69c44.88 16.32 65.79 39.27 66.3 76 0 44.88-35.19 77.52-100.99 77.52Zm-163.7-244.82c0 40.29-28.56 63.25-75.49 63.25-12.75 0-22.95-.51-30.6-2.55V235.3c6.63-1.53 18.87-3.06 36.22-3.06 43.35 0 69.87 20.4 69.87 58.65Z" data-name="Photoshop Logo"/></svg>