<svg xmlns="http://www.w3.org/2000/svg" viewBox="0 0 44 44">
  <path d="M9 21.49c.07-.48.12-.95.2-1.42.3-1.86 1.01-3.55 2.07-5.1 1.61-2.34 3.76-3.98 6.43-4.93 1.81-.65 3.68-.83 5.6-.65 2.38.22 4.53 1.07 6.44 2.49 2.33 1.73 3.9 4 4.73 6.78.53 1.78.65 3.61.39 5.45-.51 3.63-2.31 6.5-5.2 8.71-1.05.8-2.23 1.37-3.47 1.8-.57.2-.96-.08-.96-.68v-3.38c0-.56-.03-1.12-.28-1.64-.14-.3-.34-.58-.52-.86.47-.09.99-.15 1.49-.28 1.32-.34 2.51-.93 3.31-2.09.58-.85.86-1.81.97-2.82.09-.77.12-1.53-.03-2.3-.16-.85-.53-1.6-1.1-2.25-.1-.12-.12-.21-.07-.36.37-1.07.23-2.12-.17-3.14-.02-.06-.13-.12-.21-.13-.45-.06-.88.06-1.28.25-.66.31-1.29.66-1.94.99-.12.06-.28.09-.4.06-2.03-.51-4.05-.51-6.07 0-.12.03-.29 0-.39-.07-.83-.53-1.7-.94-2.64-1.19-.02 0-.03-.01-.05-.01-.61-.13-.71-.06-.89.54-.27.92-.32 1.84 0 2.77.03.07 0 .2-.05.26-1.09 1.24-1.34 2.71-1.19 4.29.09.93.31 1.81.72 2.65.59 1.18 1.58 1.89 2.77 2.31.71.25 1.47.35 2.21.52.04 0 .08.01.09.01-.19.34-.38.68-.56 1.03-.06.12-.11.26-.11.39-.01.27-.15.4-.4.47-.82.22-1.64.37-2.43-.12-.41-.25-.72-.61-.96-1.02-.37-.64-.9-1.1-1.61-1.31-.26-.08-.56-.06-.84-.04-.17.01-.23.15-.11.29.12.14.23.31.38.4.7.4 1.09 1.04 1.4 1.75.18.4.35.8.69 1.11.55.49 1.2.68 1.91.71.61.03 1.23 0 1.88 0v1.23c0 .33.01.66.01.99 0 .61-.4.9-.98.71-1.92-.65-3.61-1.69-5.03-3.14-1.37-1.41-2.42-3.03-3.07-4.9-.37-1.06-.58-2.15-.67-3.27 0-.1-.03-.2-.04-.3v-1.52Z"/>
</svg>
