<?xml version="1.0" encoding="UTF-8"?>
<svg xmlns="http://www.w3.org/2000/svg" viewBox="0 0 720.56 720" data-name="HTML Logo">
    <g>
      <path className="fill-2" d="M51.71,0l51.43,642.86,257.14,77.14,257.14-77.14L668.85,0H51.71ZM205.99,540l-12.86-128.57h77.14l12.86,64.29,77.14,25.71,77.14-25.71,12.86-102.86H193.14l-25.71-244.29h398.57l-12.86,77.14H244.57l12.86,90h282.86l-25.71,244.29-154.29,51.43-154.29-51.43Z"/>
      <polygon className="fill-1" points="437.42 475.71 360.28 501.43 360.28 372.86 450.28 372.86 437.42 475.71"/>
      <polygon className="fill-1" points="617.42 51.43 565.99 617.14 360.28 681.43 360.28 591.43 514.57 540 540.28 295.71 360.28 295.71 360.28 205.71 553.14 205.71 565.99 128.57 360.28 128.57 360.28 51.43 617.42 51.43"/>
    </g>
</svg>