<?xml version="1.0" encoding="UTF-8"?>
<svg xmlns="http://www.w3.org/2000/svg" viewBox="0 0 720.56 720" data-name="Illustrator Logo">
  <g>
    <path className="fill-1" d="M291.72,242.5c11.83,42.75,25.39,83.76,38.54,125.33h-75.63c12.15-41.51,26.41-82.19,37.09-125.33Z"/>
    <path className="fill-1" d="M630.35,0H90.21C40.68,0,.28,40.43.28,90v540c0,49.57,40.4,90,89.93,90l540.14-.28c49.53,0,89.93-40.43,89.93-90V90c0-49.57-40.4-90-89.93-90ZM436.74,503.66c-18.58,0-37.17-.19-55.75.12-5.37.09-7.76-1.94-9.39-6.84-7.09-21.29-14.57-42.46-21.71-63.73-1.13-3.37-2.7-4.43-6.28-4.41-34.2.15-68.4.15-102.6,0-3.46-.01-4.73,1.12-5.74,4.33-6.61,20.96-13.47,41.84-20.24,62.74-2.45,7.59-2.7,7.79-10.44,7.79h-48.72c-8.12,0-8.91-1.07-6.27-8.65,26.65-76.71,53.32-153.41,79.96-230.13,5.62-16.19,11.07-32.45,16.68-48.65,2.59-7.48,3.66-15.18,3.46-23.02-.11-4.58,1.75-5.99,6.12-5.92,12.02.19,24.05.07,36.08.07s23.74.11,35.6-.07c4.03-.05,6.07,1.34,7.47,5.28,35.71,101.12,71.55,202.2,107.36,303.28,2.46,6.93,1.84,7.8-5.59,7.81ZM543.9,384.84c0,37.49.01,74.98,0,112.47,0,7.34-.34,7.66-7.64,7.66-17.49,0-34.99.01-52.48,0-6.36-.01-7.18-.77-7.18-6.88-.01-75.45-.01-150.9,0-226.35,0-6,.7-6.7,6.75-6.71,17.96-.02,35.92-.02,53.89,0,5.86.01,6.65.83,6.66,6.87.01,37.64,0,75.29,0,112.94ZM510.63,239.84c-22.7-.2-37.33-15.33-37.16-38.44.15-21.4,16.4-37.02,38.24-36.76,22.19.26,36.46,15.33,36.21,38.25-.23,21.94-15.58,37.14-37.29,36.95Z"/>
  </g>
</svg>