<?xml version="1.0" encoding="UTF-8"?>
<svg xmlns="http://www.w3.org/2000/svg" viewBox="0 0 720.56 720" data-name="React.js Logo">
  <path className="fill-1" d="M630.35,0H90.21C40.68,0,.28,40.43.28,90v540c0,49.57,40.4,90,89.93,90l540.14-.28c49.53,0,89.93-40.43,89.93-90V90c0-49.57-40.4-90-89.93-90ZM528.57,453.36c11.11,43.31,23.63,121.61-24.44,148.59-47.92,26.89-109.66-23.33-142.79-54.32-33.22,31.14-97.11,81.04-145.38,54.05-47.95-26.81-33.92-103.74-22.78-147.05-44.4-12.29-120.9-41.11-120.9-95.09s76.58-80.63,121.25-92.93c-11.11-43.07-25.87-121.11,22.01-147.99,48.09-26.99,112.18,24.12,145.01,54.63,32.92-30.82,95.26-82.15,143.16-55.36,48.13,26.91,34.48,106.27,23.62,149.06,43.96,12.26,120.95,38.97,120.95,92.59s-76.66,81.5-119.71,93.82ZM520.74,289.94c-7.09,22.23-16.55,45.72-28.04,69.72,12.04,24.58,21.88,48.37,29.17,70.75,33.95-9.76,101.81-30.67,101.81-70.87s-70.71-60.54-102.94-69.6ZM426.76,471.07c-15.83,22.22-32.05,42.23-48.28,59.44,24.46,22.83,77.57,70.85,113.32,50.79,35.91-20.16,20.79-91.25,12.97-121.89-23.86,5.35-50.16,9.27-78.01,11.66ZM503.5,260.98c7.85-31.02,23.83-102.34-12.08-122.42-35.56-19.89-89.49,29.14-113.62,51.7,16.46,17.2,32.86,37.07,48.69,58.92,27.17,2.47,53.12,6.45,77.01,11.8ZM478.68,387.31c-10.59,19.8-22.11,39.14-34.39,58.01,19-2.21,37.03-5.19,53.73-8.89-5.15-15.65-11.64-32.11-19.34-49.12ZM444.36,275.08c12.19,18.52,23.52,37.56,34.09,56.99,7.28-16.54,13.47-32.67,18.43-48.09-16.53-3.66-34.14-6.65-52.52-8.9ZM413.03,448.21c19.43-28.31,37.05-57.85,52.38-88.44-15.51-30.32-33.01-59.73-52.58-87.77-34.93-2.58-70.07-2.58-105-.02-19.73,28.05-37.26,57.53-52.43,88.13,15.24,30.67,32.9,60.21,52.73,88.29,34.9,2.2,70.01,2.22,104.9-.19ZM360.28,310.13c28.41,0,51.43,22.33,51.43,49.87s-23.02,49.87-51.43,49.87-51.43-22.33-51.43-49.87,23.03-49.87,51.43-49.87ZM326.58,473.22c11.36,14.52,22.99,28.02,34.66,40.22,11.27-12.04,22.59-25.55,33.81-40.33-22.81.98-45.66.98-68.47.11ZM394.45,247c-11.18-14.44-22.55-27.76-33.9-39.68-11.52,12.06-22.99,25.35-34.18,39.66,22.68-1.03,45.4-1.02,68.08.02ZM217.04,460.48c-8.2,31.9-24.54,100.54,11.21,120.53,35.92,20.08,95.08-30.91,115.86-50.4-16.82-17.51-33.51-37.49-49.45-59.23-27.91-2.2-54.03-5.84-77.62-10.9ZM294.24,249.15c15.8-21.62,32.33-41.45,49.07-58.88-23.84-22.08-79.54-71.15-115.44-51-35.86,20.12-19.44,86.73-10.49,121.46,23.84-5.24,49.77-9.15,76.86-11.58ZM276.77,445.74c-12.4-18.65-23.89-37.87-34.42-57.58-7.32,16.84-13.58,33.39-18.67,49.31,16.43,3.46,34.22,6.23,53.09,8.27ZM224.02,283.73c5.01,15.64,11.14,31.85,18.3,48.32,10.38-19.5,21.7-38.54,33.92-57.01-18.26,2.21-35.78,5.12-52.22,8.69ZM200.13,289.59c-32.96,9.03-103.25,29.59-103.25,69.95s71.47,63.39,102.9,72.11c7.28-23,16.87-47.14,28.43-71.53-11.41-24.04-20.87-47.8-28.08-70.53Z"/>
</svg>