<?xml version="1.0" encoding="UTF-8"?>
<svg xmlns="http://www.w3.org/2000/svg" viewBox="0 0 720.56 720" data-name="Sass Logo">
  <g>
    <path className="fill-1" d="M292.78,471.09c16.88,53.44-21.09,94.22-50.62,102.66-35.16,11.25-33.76-11.25-32.35-19.69,4.22-23.9,23.91-53.43,82.97-82.97Z"/>
    <path className="fill-1" d="M630.35,0H90.21C40.68,0,.28,40.43.28,90v540c0,49.57,40.4,90,89.93,90l540.14-.28c49.53,0,89.93-40.43,89.93-90V90c0-49.57-40.4-90-89.93-90ZM574.03,189.84c-9.84,149.07-237.66,181.41-265.78,111.1-5.63-15.47,4.22-11.25,7.03-5.63,53.44,50.63,205.31-8.44,222.19-95.62,11.25-57.66-77.35-82.97-202.5-19.69-125.16,63.28-132.19,113.91-133.6,133.59-2.81,53.44,60.47,75.94,106.88,125.16,80.15-21.09,144.84,7.03,144.84,67.5,0,23.91-21.09,37.97-30.93,40.78-9.85,2.81-19.69,0-4.22-5.62,15.46-5.63,37.97-40.78-5.63-71.72-11.25-8.44-49.22-22.5-92.81-11.25,19.69,57.65-11.25,112.5-42.19,132.19-30.94,19.68-104.06,40.78-106.87-26.72-.71-24.89,14.75-46.9,36.58-65.85,21.34-18.53,48.76-34.14,73.1-46.65-37.96-29.53-122.34-74.53-130.78-130.79-8.44-56.25,78.75-150.46,213.75-196.87,99.85-33.75,213.75-12.66,210.94,66.09Z"/>
  </g>
</svg>